<?xml version="1.0" standalone="no"?>
<!DOCTYPE svg PUBLIC "-//W3C//DTD SVG 20010904//EN"
 "http://www.w3.org/TR/2001/REC-SVG-20010904/DTD/svg10.dtd">
<svg version="1.0" xmlns="http://www.w3.org/2000/svg"
 width="157.000000pt" height="92.000000pt" viewBox="0 0 157.000000 92.000000"
 preserveAspectRatio="xMidYMid meet">

<g transform="translate(0.000000,92.000000) scale(0.100000,-0.100000)"
fill="#000000" stroke="none">
<path d="M0 460 l0 -460 785 0 785 0 0 460 0 460 -785 0 -785 0 0 -460z m790
233 l0 -116 23 20 c36 33 63 43 114 43 58 0 105 -26 130 -72 15 -28 18 -64 21
-230 l4 -198 -66 0 -66 0 0 184 c0 154 -3 187 -16 200 -26 26 -54 18 -100 -28
l-44 -43 0 -157 0 -156 -65 0 -65 0 0 335 0 335 65 0 65 0 0 -117z m-465 -78
c34 -77 76 -171 91 -208 l29 -68 3 210 2 211 55 0 55 0 0 -310 0 -310 -73 0
-74 0 -65 147 c-37 82 -79 180 -95 218 l-28 70 -3 -217 -2 -218 -55 0 -55 0 0
310 0 311 76 -3 76 -3 63 -140z m1134 -331 c64 -54 22 -154 -64 -154 -52 0
-90 37 -90 90 0 82 89 119 154 64z"/>
</g>
</svg>
